<svg xmlns="http://www.w3.org/2000/svg" viewBox="0 0 26 23.88"><defs><style>.cls-1,.cls-2{fill:none;stroke:#fff;stroke-miterlimit:10;stroke-width:2px;}.cls-2{stroke-linecap:round;}</style></defs><title>22</title><g id="Шар_2" data-name="Шар 2"><g id="Шар_1-2" data-name="Шар 1"><path class="cls-1" d="M23.4,16.48v5.2a1.2,1.2,0,0,1-1.2,1.2H2.2A1.2,1.2,0,0,1,1,21.68V6.48a1.2,1.2,0,0,1,1.2-1.2h20a1.2,1.2,0,0,1,1.2,1.2v5.2"/><rect class="cls-1" x="17" y="11.68" width="8" height="4.8" rx="0.8" ry="0.8"/><line class="cls-2" x1="19.4" y1="14.08" x2="19.4" y2="14.08"/><polyline class="cls-2" points="20.86 5.28 19.41 1.28 8.41 5.28"/><line class="cls-2" x1="5" y1="7.68" x2="5.8" y2="7.68"/><line class="cls-2" x1="9" y1="7.68" x2="9.8" y2="7.68"/><line class="cls-2" x1="13" y1="7.68" x2="13.8" y2="7.68"/><line class="cls-2" x1="17" y1="7.68" x2="17.8" y2="7.68"/><line class="cls-2" x1="6.6" y1="20.48" x2="7.4" y2="20.48"/><line class="cls-2" x1="10.6" y1="20.48" x2="11.4" y2="20.48"/><line class="cls-2" x1="14.6" y1="20.48" x2="15.4" y2="20.48"/><line class="cls-2" x1="18.6" y1="20.48" x2="19.4" y2="20.48"/></g></g></svg>