<svg xmlns="http://www.w3.org/2000/svg" viewBox="0 0 26 21.2"><defs><style>.cls-1,.cls-2,.cls-3{fill:none;stroke:#39d2ce;stroke-width:2px;}.cls-1,.cls-2{stroke-miterlimit:10;}.cls-2,.cls-3{stroke-linecap:round;}.cls-3{stroke-linejoin:round;}</style></defs><title>3</title><g id="Шар_2" data-name="Шар 2"><g id="Шар_1-2" data-name="Шар 1"><line class="cls-1" x1="13" y1="4.2" x2="13" y2="20.2"/><line class="cls-2" x1="9" y1="20.2" x2="17" y2="20.2"/><polyline class="cls-3" points="11.4 2.6 5 2.6 1 10.6"/><circle class="cls-2" cx="13" cy="2.6" r="1.6"/><path class="cls-3" d="M5,14.6a4,4,0,0,0,4-4H1A4,4,0,0,0,5,14.6Z"/><line class="cls-3" x1="5" y1="2.6" x2="9" y2="10.6"/><polyline class="cls-3" points="14.6 2.6 21 2.6 25 10.6"/><path class="cls-3" d="M21,14.6a4,4,0,0,1-4-4h8A4,4,0,0,1,21,14.6Z"/><line class="cls-3" x1="21" y1="2.6" x2="17" y2="10.6"/></g></g></svg>