<svg xmlns="http://www.w3.org/2000/svg" viewBox="0 0 40 40"><defs><style>.cls-1{fill:#2bcfca;fill-rule:evenodd;}</style></defs><title>23</title><g id="Шар_2" data-name="Шар 2"><g id="Шар_1-2" data-name="Шар 1"><path class="cls-1" d="M20,0A20,20,0,1,0,40,20,20,20,0,0,0,20,0ZM30.15,22.16a38.27,38.27,0,0,1,2.76,2.77,8,8,0,0,1,1,1.42c.38.74,0,1.54-.62,1.59h-4.1a3.16,3.16,0,0,1-2.61-1.06c-.57-.58-1.09-1.19-1.64-1.79a3.91,3.91,0,0,0-.74-.66.86.86,0,0,0-1.36.33,4.31,4.31,0,0,0-.43,1.91c0,1-.34,1.22-1.3,1.26a10.48,10.48,0,0,1-5.86-1.26A13,13,0,0,1,11.27,23a49.78,49.78,0,0,1-5.19-9.26C5.75,13,6,12.61,6.79,12.6c1.34,0,2.67,0,4,0a1.18,1.18,0,0,1,1.11.83,24.88,24.88,0,0,0,2.72,5,4.3,4.3,0,0,0,1,1.13.62.62,0,0,0,1.06-.31A3.48,3.48,0,0,0,17,18.23a15.72,15.72,0,0,0-.07-3.7,1.54,1.54,0,0,0-1.31-1.41c-.39-.07-.33-.22-.14-.44A1.47,1.47,0,0,1,16.69,12h4.63c.73.14.89.47,1,1.21v5.14c0,.28.14,1.13.65,1.31s.68-.19.93-.45a16,16,0,0,0,2.61-4c.31-.63.58-1.29.85-1.95a1,1,0,0,1,1-.72h4.46a2.34,2.34,0,0,1,.39,0c.75.13,1,.45.73,1.18a11.14,11.14,0,0,1-1.77,3.07c-.74,1-1.54,2-2.28,3.06s-.62,1.42.22,2.24Zm0,0"/></g></g></svg>