<svg xmlns="http://www.w3.org/2000/svg" viewBox="0 0 40 40"><defs><style>.cls-1{fill:#2bcfca;}.cls-2{fill:#fff;}</style></defs><title>21</title><g id="Шар_2" data-name="Шар 2"><g id="Шар_1-2" data-name="Шар 1"><circle class="cls-1" cx="20" cy="20" r="20"/><path class="cls-2" d="M27.76,18.22A6.56,6.56,0,0,0,22,12l-.21,0a3,3,0,0,0-.49-.05.83.83,0,0,0-.89.74.86.86,0,0,0,.13.67,1.27,1.27,0,0,0,.91.39l.25,0c2.9.65,3.88,1.67,4.36,4.54,0,.07,0,.16,0,.25,0,.34.06,1.06.83,1.06l.2,0c.72-.11.69-.76.68-1.08a1.59,1.59,0,0,1,0-.23.29.29,0,0,0,0,0Zm0,0"/><path class="cls-2" d="M21.07,10.85l.23,0c4.76.73,7,3,7.56,7.79a2.82,2.82,0,0,1,0,.29c0,.38,0,1.16.86,1.17h0a.82.82,0,0,0,.62-.24,1.31,1.31,0,0,0,.23-1c0-.08,0-.16,0-.22a9.71,9.71,0,0,0-9.1-9.53H21A.86.86,0,0,0,20,10c0,.76.7.82,1.05.84Zm0,0"/><path class="cls-2" d="M28.63,24.87l-.3-.24c-.52-.42-1.07-.8-1.61-1.18l-.33-.23a3.32,3.32,0,0,0-1.88-.72,2.44,2.44,0,0,0-2,1.29,1.08,1.08,0,0,1-.93.56,1.84,1.84,0,0,1-.75-.19,9,9,0,0,1-4.7-4.57c-.44-1-.3-1.62.47-2.15a2.17,2.17,0,0,0,1.19-1.9c-.07-1.2-2.71-4.81-3.83-5.22a2.17,2.17,0,0,0-1.48,0A4.27,4.27,0,0,0,9.8,12.51a4.07,4.07,0,0,0,.06,3.28,26.49,26.49,0,0,0,5.81,8.85,28.18,28.18,0,0,0,8.82,5.86,4.88,4.88,0,0,0,.87.26l.2,0h.11a5,5,0,0,0,4.15-3.16c.52-1.47-.43-2.2-1.2-2.79Zm0,0"/><path class="cls-2" d="M21.78,14.75a1,1,0,0,0-1.05.61.81.81,0,0,0,0,.71,1.06,1.06,0,0,0,.8.42,1.89,1.89,0,0,1,1.75,1.89.89.89,0,0,0,.85.88h.1c.54-.06.8-.46.78-1.18A3.37,3.37,0,0,0,24,15.79a3.13,3.13,0,0,0-2.21-1Zm0,0"/></g></g></svg>