<svg xmlns="http://www.w3.org/2000/svg" viewBox="0 0 19.16 26.51"><defs><style>.cls-1,.cls-2{fill:none;stroke:#39d2ce;stroke-linecap:round;stroke-width:2px;}.cls-1{stroke-miterlimit:10;}.cls-2{stroke-linejoin:round;}</style></defs><title>1</title><g id="Шар_2" data-name="Шар 2"><g id="Шар_1-2" data-name="Шар 1"><line class="cls-1" x1="4.27" y1="8.35" x2="10.8" y2="8.35"/><line class="cls-1" x1="4.27" y1="14.89" x2="10.8" y2="14.89"/><line class="cls-1" x1="4.27" y1="11.62" x2="9.17" y2="11.62"/><line class="cls-1" x1="4.27" y1="18.16" x2="9.17" y2="18.16"/><line class="cls-1" x1="14.07" y1="8.35" x2="14.89" y2="8.35"/><line class="cls-1" x1="14.07" y1="14.89" x2="14.89" y2="14.89"/><line class="cls-1" x1="14.07" y1="11.62" x2="14.89" y2="11.62"/><line class="cls-1" x1="14.07" y1="18.16" x2="14.89" y2="18.16"/><polygon class="cls-2" points="5.89 1 5.89 1 5.89 1 5.89 1"/><polygon class="cls-2" points="10.79 1 10.79 1 10.79 1 10.79 1"/><polygon class="cls-2" points="15.68 1 15.68 1 15.68 1 15.68 1"/><polygon class="cls-2" points="18.16 3.44 15.68 1 13.24 2.63 10.79 1 8.34 2.63 5.89 1 3.45 2.63 1 1 1 23.07 3.48 25.5 5.92 23.88 8.37 25.5 10.81 23.88 13.26 25.5 15.71 23.88 18.16 25.5 18.16 3.44"/><polygon class="cls-2" points="13.26 25.51 13.26 25.5 13.26 25.51 13.26 25.51"/><polygon class="cls-2" points="8.37 25.51 8.37 25.5 8.37 25.51 8.37 25.51"/><polygon class="cls-2" points="3.48 25.51 3.48 25.5 3.48 25.51 3.48 25.51"/></g></g></svg>