<svg xmlns="http://www.w3.org/2000/svg" viewBox="0 0 40 40"><defs><style>.cls-1{fill:#2bcfca;}.cls-2{fill:#fff;}</style></defs><title>222</title><g id="Шар_2" data-name="Шар 2"><g id="Шар_1-2" data-name="Шар 1"><circle class="cls-1" cx="20" cy="20" r="20"/><path class="cls-2" d="M11.89,21.71l6.79,6.8c2.7,2.7,5.28,4.06,7.67,4.06a6.84,6.84,0,0,0,4.91-2.23l1.17-1.17a2.47,2.47,0,0,0,.44-2.92c-.94-1.77-4-3.61-4.37-3.82A2.77,2.77,0,0,0,27.14,22a1.75,1.75,0,0,0-1.56.86c-.45.54-1,1.17-1.15,1.28a1.8,1.8,0,0,1-2.65-.27L16.48,18.6A1.8,1.8,0,0,1,16.21,16c.11-.14.75-.7,1.28-1.15a1.74,1.74,0,0,0,.79-1A2.46,2.46,0,0,0,18,11.89c-.2-.35-2-3.43-3.82-4.37A2.53,2.53,0,0,0,11.22,8L10.05,9.14A6.6,6.6,0,0,0,8,15.57,13.41,13.41,0,0,0,11.89,21.71Z"/></g></g></svg>